<?xml version="1.0" encoding="utf-8"?>
<!-- Generator: Adobe Illustrator 19.2.1, SVG Export Plug-In . SVG Version: 6.00 Build 0)  -->
<svg version="1.1" id="Layer_1" xmlns="http://www.w3.org/2000/svg" xmlns:xlink="http://www.w3.org/1999/xlink" x="0px" y="0px"
	 viewBox="0 0 1072.3 227.6" style="enable-background:new 0 0 1072.3 227.6;" xml:space="preserve">
<style type="text/css">
	.st0{fill:#51AE43;}
	.st1{fill:#2A4191;}
	.st2{fill:url(#SVGID_1_);}
	.st3{fill:url(#SVGID_2_);}
</style>
<path class="st0" d="M48.3,63.2c21.9,0,40.5,11.7,43.2,34.5H74.3c-1.8-13.1-13.1-20.1-26-20.1c-21.6,0-30.6,19.1-30.6,38.4
	s9,38.4,30.6,38.4c18.2,0.4,27.8-10.6,28.2-27.7H49.7v-13.4h42.9v53.1H81.3l-2.7-11.9c-9.4,10.8-18,14.4-30.3,14.4
	C18.2,168.9,0,145,0,116C0,87.4,18.2,63.2,48.3,63.2z"/>
<path class="st0" d="M103.9,93.5H119v14.1h0.3c1.8-7.8,11.6-16.1,21.3-16.1c3.8,0,4.5,0.3,6.1,0.4v15.5c-2.3-0.4-4.7-0.7-6.9-0.7
	c-10.9,0-19.8,8.8-19.8,25v34.7h-16.1L103.9,93.5L103.9,93.5z"/>
<path class="st0" d="M158.8,134.1c0,11.4,6.2,21.6,19.6,21.6c9.5,0,15-4.1,17.8-12.1h15.3c-3.4,16-17.2,24.9-33,24.9
	c-23,0-35.7-15.8-35.7-38.4c0-20.8,13.6-38.5,35.3-38.5c23,0,37.1,20.8,34.5,42.6L158.8,134.1L158.8,134.1z M196.4,123.5
	c-0.7-10.2-7.3-19.3-18.4-19.3c-11.2,0-18.8,8.5-19.2,19.3H196.4z"/>
<path class="st0" d="M231.7,134.1c0,11.4,6.2,21.6,19.6,21.6c9.5,0,15-4.1,17.8-12.1h15.3c-3.4,16-17.2,24.9-33,24.9
	c-23,0-35.7-15.8-35.7-38.4c0-20.8,13.6-38.5,35.3-38.5c23,0,37.1,20.8,34.5,42.6L231.7,134.1L231.7,134.1z M269.2,123.5
	c-0.7-10.2-7.3-19.3-18.4-19.3c-11.2,0-18.8,8.5-19.2,19.3H269.2z"/>
<path class="st0" d="M292,93.5h15.3v10.7l0.3,0.3c4.9-8,13.1-13,22.7-13c16,0,25.8,8.3,25.8,24.9v50.1H340v-45.9
	c-0.4-11.4-4.7-16.4-14.3-16.4c-10.7,0-17.6,8.5-17.6,19.2v43.1H292V93.5L292,93.5z"/>
<path class="st0" d="M660.2,188.7H0.5v12h669.8C666.6,196.7,663.2,192.7,660.2,188.7z"/>
<path class="st1" d="M427.8,129.9c0-22.2,12.6-38.4,34.1-38.4c21.6,0,34.1,16.2,34.1,38.4c0,22.5-12.6,38.5-34.1,38.5
	C440.3,168.4,427.8,152.3,427.8,129.9z M481.1,129.9c0-12.6-5.9-25.7-19.2-25.7c-13.3,0-19.2,13.1-19.2,25.7
	c0,12.7,5.9,25.8,19.2,25.8S481.1,142.6,481.1,129.9z"/>
<path class="st1" d="M503.6,93.5h14.1v9.9h0.3c4.2-8.5,12.2-11.9,20.9-11.9c21.3,0,31.7,17.4,31.7,38.8c0,19.8-9.3,38.1-29.2,38.1
	c-8.6,0-18-3.4-22.6-11.4h-0.3v43.7h-14.9V93.5L503.6,93.5z M537,104.2c-12.6,0-19,10.2-19,25.8c0,14.7,6.9,25.7,19,25.7
	c13.6,0,18.7-13,18.7-25.7C555.7,116.9,549.2,104.2,537,104.2z"/>
<path class="st1" d="M589.1,143c0.9,9.5,7.3,12.7,15.3,12.7c5.8,0,15.4-1.3,15-9.6c-0.4-8.5-11.2-9.5-22.1-12.1
	c-11-2.5-21.7-6.8-21.7-21.6c0-16,16-20.9,28.2-20.9c13.9,0,26.5,6.1,28.2,22.5h-15.6c-1.4-7.8-7.1-9.7-13.7-9.7
	c-4.3,0-12.3,1.1-12.3,7.5c0,7.9,11,9.2,22,11.7c10.9,2.7,21.8,6.9,21.8,21.3c0,17.4-16.2,23.7-30.2,23.7c-17.1,0-29.6-8.2-30-25.4
	L589.1,143L589.1,143z"/>
<linearGradient id="SVGID_1_" gradientUnits="userSpaceOnUse" x1="646.8" y1="365.34" x2="853.7" y2="365.34" gradientTransform="matrix(1 0 0 1 0 -241.89)">
	<stop  offset="0" style="stop-color:#CA2424"/>
	<stop  offset="1" style="stop-color:#EA7A06"/>
</linearGradient>
<path class="st2" d="M841.5,168.7v-42.6c0-7.7-4.7-12.6-12.6-12.6c-12.5,0-18.4,8.3-18.4,19.6v35.6h-10v-63h10v10h-0.4
	c4.4-8,11.5-11.3,20.6-11.3c16.5,0,21.8,9.5,21.8,22.9v13.4c1-5.6,1.2-11.4,1.2-17.3c0-57.5-46.4-104.1-103.4-104.1
	S646.8,65.9,646.8,123.4S693,227.6,750.1,227.6c41.1,0,76.5-23.9,93.1-58.9L841.5,168.7L841.5,168.7z M793.5,168.7h-60v-87h59v10
	h-48v27h45v10h-45v30h49V168.7z"/>
<linearGradient id="SVGID_2_" gradientUnits="userSpaceOnUse" x1="859.3" y1="390.99" x2="1072.2999" y2="390.99" gradientTransform="matrix(1 0 0 1 0 -241.89)">
	<stop  offset="0" style="stop-color:#CA2424"/>
	<stop  offset="1" style="stop-color:#EA7A06"/>
</linearGradient>
<path class="st3" d="M916,148.6c-2.8,13.9-12.6,21.3-26.7,21.3c-20,0-29.4-13.9-30-32.9c0-18.9,12.3-32.6,29.4-32.6
	c22.1,0,28.9,20.7,28.3,35.8h-46.8c-0.4,10.9,5.8,20.6,19.5,20.6c8.6,0,14.4-4,16.2-12.2L916,148.6L916,148.6z M906.1,131.2
	c-0.6-9.8-7.7-17.7-18-17.7c-10.6,0-17.3,8-17.9,17.7H906.1z M922.4,105.9h9.7v13.2h0.2c5-10.2,11.9-15,23-14.6v10.9
	c-16.6,0-22.6,9.3-22.6,25.3v27.8h-10.3L922.4,105.9L922.4,105.9z M1010,163.1c0,20.4-9.2,30.7-29,30.7c-11.7,0-25.3-4.8-25.9-18.4
	h10.3c0.4,7.4,9.6,10.2,16.2,10.2c13.4,0,18.8-9.7,18.8-23.7v-4.1h-0.2c-3.5,7.6-11.5,11.4-19.5,11.4c-18.6,0-28-14.6-28-31.7
	c0-14.8,7.1-33,28.9-33c7.9,0,14.9,3.5,18.6,10.4h0.1v-9h9.7L1010,163.1L1010,163.1z M999.8,135.9c0-11-4.8-22.4-17.8-22.4
	c-13.2,0-18.5,10.8-18.5,22.7c0,11.3,4.1,23.8,17.7,23.8C994.8,160.1,999.8,147.6,999.8,135.9z M1045.2,176.8
	c-4.8,12.1-9,16.7-18.2,16.7c-2.4,0-4.8-0.2-7.1-1.1v-9.5c1.9,0.6,4,1.5,6,1.5c4.2,0,6.5-1.9,8.5-5.7l4.2-10.6l-24.8-62.2h11.6
	l18.3,51.2h0.2l17.5-51.2h10.9L1045.2,176.8z"/>
<polygon class="st1" points="546.7,0.6 554.9,11.7 507.4,49.4 472.1,31.2 356.1,96.7 386.4,96.7 399.5,90 399.5,166.7 416.5,166.7 
	416.5,80.2 473,49.1 507.4,69.3 563.4,23.2 571.4,34 582.5,0 "/>
</svg>
