<?xml version="1.0" encoding="utf-8"?>
<!-- Generator: Adobe Illustrator 19.2.1, SVG Export Plug-In . SVG Version: 6.00 Build 0)  -->
<svg version="1.1" id="Layer_1" xmlns="http://www.w3.org/2000/svg" xmlns:xlink="http://www.w3.org/1999/xlink" x="0px" y="0px"
	 viewBox="0 0 1116.4 321.8" style="enable-background:new 0 0 1116.4 321.8;" xml:space="preserve">
<style type="text/css">
	.st0{fill:#51AE43;}
	.st1{fill:#2A4191;}
	.st2{fill:url(#SVGID_1_);}
	.st3{fill:url(#SVGID_2_);}
</style>
<path class="st0" d="M70.3,90.3c21.9,0,40.5,11.7,43.2,34.5H96.3c-1.8-13.1-13.1-20.1-26-20.1c-21.6,0-30.6,19.1-30.6,38.4
	s9,38.4,30.6,38.4c18.2,0.4,27.8-10.6,28.2-27.7H71.7v-13.4h42.9v53.1h-11.3l-2.7-11.9C91.2,192.4,82.6,196,70.3,196
	C40.2,196,22,172.1,22,143.1C22,114.5,40.2,90.3,70.3,90.3z"/>
<path class="st0" d="M125.9,120.6H141v14.1h0.3c1.8-7.8,11.6-16.1,21.3-16.1c3.8,0,4.5,0.3,6.1,0.4v15.5c-2.3-0.4-4.7-0.7-6.9-0.7
	c-10.9,0-19.8,8.8-19.8,25v34.7h-16.1L125.9,120.6L125.9,120.6z"/>
<path class="st0" d="M180.8,161.2c0,11.4,6.2,21.6,19.6,21.6c9.5,0,15-4.1,17.8-12.1h15.3c-3.4,16-17.2,24.9-33,24.9
	c-23,0-35.7-15.8-35.7-38.4c0-20.8,13.6-38.5,35.3-38.5c23,0,37.1,20.8,34.5,42.6L180.8,161.2L180.8,161.2z M218.4,150.6
	c-0.7-10.2-7.3-19.3-18.4-19.3c-11.2,0-18.8,8.5-19.2,19.3H218.4z"/>
<path class="st0" d="M253.7,161.2c0,11.4,6.2,21.6,19.6,21.6c9.5,0,15-4.1,17.8-12.1h15.3c-3.4,16-17.2,24.9-33,24.9
	c-23,0-35.7-15.8-35.7-38.4c0-20.8,13.6-38.5,35.3-38.5c23,0,37.1,20.8,34.5,42.6L253.7,161.2L253.7,161.2z M291.2,150.6
	c-0.7-10.2-7.3-19.3-18.4-19.3c-11.2,0-18.8,8.5-19.2,19.3H291.2z"/>
<path class="st0" d="M314,120.6h15.3v10.7l0.3,0.3c4.9-8,13.1-13,22.7-13c16,0,25.8,8.3,25.8,24.9v50.1H362v-45.9
	c-0.4-11.4-4.7-16.4-14.3-16.4c-10.7,0-17.6,8.5-17.6,19.2v43.1H314L314,120.6L314,120.6z"/>
<path class="st0" d="M682.2,215.8H22.5v12h669.8C688.6,223.8,685.2,219.8,682.2,215.8z"/>
<path class="st1" d="M449.8,157c0-22.2,12.6-38.4,34.1-38.4c21.6,0,34.1,16.2,34.1,38.4c0,22.5-12.6,38.5-34.1,38.5
	C462.3,195.5,449.8,179.4,449.8,157z M503.1,157c0-12.6-5.9-25.7-19.2-25.7c-13.3,0-19.2,13.1-19.2,25.7c0,12.7,5.9,25.8,19.2,25.8
	C497.2,182.8,503.1,169.7,503.1,157z"/>
<path class="st1" d="M525.6,120.6h14.1v9.9h0.3c4.2-8.5,12.2-11.9,20.9-11.9c21.3,0,31.7,17.4,31.7,38.8c0,19.8-9.3,38.1-29.2,38.1
	c-8.6,0-18-3.4-22.6-11.4h-0.3v43.7h-14.9V120.6L525.6,120.6z M559,131.3c-12.6,0-19,10.2-19,25.8c0,14.7,6.9,25.7,19,25.7
	c13.6,0,18.7-13,18.7-25.7C577.7,144,571.2,131.3,559,131.3z"/>
<path class="st1" d="M611.1,170.1c0.9,9.5,7.3,12.7,15.3,12.7c5.8,0,15.4-1.3,15-9.6c-0.4-8.5-11.2-9.5-22.1-12.1
	c-11-2.5-21.7-6.8-21.7-21.6c0-16,16-20.9,28.2-20.9c13.9,0,26.5,6.1,28.2,22.5h-15.6c-1.4-7.8-7.1-9.7-13.7-9.7
	c-4.3,0-12.3,1.1-12.3,7.5c0,7.9,11,9.2,22,11.7c10.9,2.7,21.8,6.9,21.8,21.3c0,17.4-16.2,23.7-30.2,23.7c-17.1,0-29.6-8.2-30-25.4
	L611.1,170.1L611.1,170.1z"/>
<linearGradient id="SVGID_1_" gradientUnits="userSpaceOnUse" x1="668.815" y1="167.5565" x2="875.644" y2="167.5565" gradientTransform="matrix(1 0 0 -1 0 318.11)">
	<stop  offset="0" style="stop-color:#CA2424"/>
	<stop  offset="1" style="stop-color:#EA7A06"/>
</linearGradient>
<path class="st2" d="M863.5,195.8v-42.6c0-7.7-4.7-12.6-12.6-12.6c-12.5,0-18.4,8.3-18.4,19.6v35.6h-10v-63h10v10h-0.4
	c4.4-8,11.5-11.3,20.6-11.3c16.5,0,21.8,9.5,21.8,22.9v13.4c1-5.6,1.2-11.4,1.2-17.3c0-57.5-46.4-104.1-103.4-104.1
	S668.8,93,668.8,150.5S715,254.7,772.1,254.7c41.1,0,76.5-23.9,93.1-58.9L863.5,195.8L863.5,195.8z M815.5,195.8h-60v-87h59v10h-48
	v27h45v10h-45v30h49V195.8z"/>
<linearGradient id="SVGID_2_" gradientUnits="userSpaceOnUse" x1="881.229" y1="141.8914" x2="1094.4398" y2="141.8914" gradientTransform="matrix(1 0 0 -1 0 318.11)">
	<stop  offset="0" style="stop-color:#CA2424"/>
	<stop  offset="1" style="stop-color:#EA7A06"/>
</linearGradient>
<path class="st3" d="M938,175.7c-2.8,13.9-12.6,21.3-26.7,21.3c-20,0-29.4-13.9-30-32.9c0-18.9,12.3-32.6,29.4-32.6
	c22.1,0,28.9,20.7,28.3,35.8h-46.8c-0.4,10.9,5.8,20.6,19.5,20.6c8.6,0,14.4-4,16.2-12.2L938,175.7L938,175.7z M928.1,158.3
	c-0.6-9.8-7.7-17.7-18-17.7c-10.6,0-17.3,8-17.9,17.7H928.1z M944.4,133h9.7v13.2h0.2c5-10.2,11.9-15,23-14.6v10.9
	c-16.6,0-22.6,9.3-22.6,25.3v27.8h-10.3V133z M1032,190.2c0,20.4-9.2,30.7-29,30.7c-11.7,0-25.3-4.8-25.9-18.4h10.3
	c0.4,7.4,9.6,10.2,16.2,10.2c13.4,0,18.8-9.7,18.8-23.7v-4.1h-0.2c-3.5,7.6-11.5,11.4-19.5,11.4c-18.6,0-28-14.6-28-31.7
	c0-14.8,7.1-33,28.9-33c7.9,0,14.9,3.5,18.6,10.4h0.1v-9h9.7L1032,190.2L1032,190.2z M1021.8,163c0-11-4.8-22.4-17.8-22.4
	c-13.2,0-18.5,10.8-18.5,22.7c0,11.3,4.1,23.8,17.7,23.8C1016.8,187.2,1021.8,174.7,1021.8,163z M1067.2,203.9
	c-4.8,12.1-9,16.7-18.2,16.7c-2.4,0-4.8-0.2-7.1-1.1V210c1.9,0.6,4,1.5,6,1.5c4.2,0,6.5-1.9,8.5-5.7l4.2-10.6l-24.8-62.2h11.6
	l18.3,51.2h0.2l17.5-51.2h10.9L1067.2,203.9z"/>
<polygon class="st1" points="568.7,27.7 576.9,38.8 529.4,76.5 494.1,58.3 378.1,123.8 408.4,123.8 421.5,117.1 421.5,193.8 
	438.5,193.8 438.5,107.3 495,76.2 529.4,96.4 585.4,50.3 593.4,61.1 604.5,27.1 "/>
<path class="st1" d="M26,242.6h26.7v5.6H32.5v9.7h18.7v5.3H32.5v10.9H53v5.6H26V242.6z"/>
<path class="st1" d="M65.1,265.6l-9.3-12.7H63l5.6,8.3l5.9-8.3h6.9l-9.2,12.4l10.3,14.5h-7.1l-6.8-9.9l-6.6,9.9h-7L65.1,265.6z"/>
<path class="st1" d="M86,252.9h5.6v3.6h0.1c0.8-1.6,2-2.7,3.5-3.4c1.5-0.7,3.1-1,4.8-1c2.1,0,4,0.4,5.5,1.1c1.6,0.7,2.9,1.8,3.9,3.1
	c1,1.3,1.8,2.8,2.3,4.5s0.8,3.6,0.8,5.6c0,1.8-0.2,3.6-0.7,5.3c-0.5,1.7-1.2,3.2-2.1,4.5c-1,1.3-2.2,2.3-3.6,3.1
	c-1.5,0.8-3.2,1.2-5.1,1.2c-0.9,0-1.7-0.1-2.6-0.2c-0.9-0.2-1.7-0.4-2.5-0.8c-0.8-0.3-1.5-0.8-2.2-1.3c-0.7-0.5-1.2-1.2-1.7-1.9
	h-0.1v13.4H86V252.9z M106.7,266.3c0-1.2-0.2-2.4-0.5-3.5c-0.3-1.1-0.8-2.2-1.4-3s-1.4-1.6-2.3-2.1c-0.9-0.5-2-0.8-3.2-0.8
	c-2.5,0-4.4,0.9-5.6,2.6c-1.3,1.7-1.9,4-1.9,6.9c0,1.4,0.2,2.6,0.5,3.8c0.3,1.2,0.8,2.2,1.5,3c0.7,0.8,1.4,1.5,2.4,2
	c0.9,0.5,2,0.7,3.2,0.7c1.4,0,2.5-0.3,3.4-0.8c0.9-0.6,1.7-1.3,2.3-2.2c0.6-0.9,1-1.9,1.3-3C106.5,268.7,106.7,267.5,106.7,266.3z"
	/>
<path class="st1" d="M122.2,267.9c0,1,0.1,2,0.4,3c0.3,1,0.7,1.8,1.3,2.5c0.6,0.7,1.3,1.3,2.2,1.7c0.9,0.4,2,0.6,3.2,0.6
	c1.7,0,3.1-0.4,4.2-1.1c1.1-0.7,1.8-1.9,2.4-3.4h5.6c-0.3,1.5-0.9,2.8-1.6,3.9c-0.8,1.1-1.7,2.1-2.8,2.9c-1.1,0.8-2.3,1.4-3.6,1.8
	c-1.3,0.4-2.7,0.6-4.2,0.6c-2.1,0-4-0.3-5.6-1c-1.6-0.7-3-1.7-4.1-2.9c-1.1-1.2-2-2.7-2.5-4.5c-0.6-1.7-0.9-3.6-0.9-5.7
	c0-1.9,0.3-3.7,0.9-5.4c0.6-1.7,1.5-3.2,2.6-4.5c1.1-1.3,2.5-2.3,4.1-3.1c1.6-0.8,3.4-1.1,5.4-1.1c2.1,0,4,0.4,5.7,1.3
	c1.7,0.9,3.1,2.1,4.2,3.5c1.1,1.5,1.9,3.1,2.4,5c0.5,1.9,0.6,3.8,0.4,5.8H122.2z M136,264c-0.1-0.9-0.3-1.8-0.6-2.7
	c-0.3-0.9-0.8-1.6-1.4-2.3c-0.6-0.6-1.3-1.2-2.1-1.6c-0.8-0.4-1.7-0.6-2.7-0.6c-1,0-2,0.2-2.8,0.5c-0.8,0.4-1.6,0.9-2.2,1.5
	c-0.6,0.6-1.1,1.4-1.5,2.3c-0.4,0.9-0.6,1.8-0.6,2.8H136z"/>
<path class="st1" d="M146.5,252.9h5.6v5.2h0.1c0.2-0.7,0.5-1.4,1-2.1c0.5-0.7,1.1-1.3,1.8-1.9c0.7-0.6,1.5-1,2.4-1.4
	c0.9-0.3,1.8-0.5,2.7-0.5c0.7,0,1.2,0,1.4,0.1c0.3,0,0.5,0.1,0.8,0.1v5.7c-0.4-0.1-0.8-0.1-1.3-0.2c-0.4-0.1-0.9-0.1-1.3-0.1
	c-1,0-2,0.2-2.8,0.6c-0.9,0.4-1.7,1-2.3,1.8c-0.7,0.8-1.2,1.7-1.6,2.9c-0.4,1.1-0.6,2.5-0.6,4v12.8h-5.9V252.9z"/>
<path class="st1" d="M162.1,252.9h4.5v-8.1h5.9v8.1h5.4v4.4h-5.4v14.4c0,0.6,0,1.2,0.1,1.6c0.1,0.5,0.2,0.8,0.4,1.1
	c0.2,0.3,0.5,0.5,0.9,0.7c0.4,0.2,0.9,0.2,1.6,0.2c0.4,0,0.8,0,1.2,0c0.4,0,0.8-0.1,1.2-0.2v4.6c-0.7,0.1-1.3,0.1-1.9,0.2
	c-0.6,0.1-1.3,0.1-1.9,0.1c-1.6,0-2.8-0.1-3.8-0.4c-1-0.3-1.7-0.7-2.2-1.3c-0.5-0.6-0.9-1.3-1.1-2.2c-0.2-0.9-0.3-1.9-0.3-3v-15.9
	h-4.5V252.9z"/>
<path class="st1" d="M186.6,271.1c0.2,1.7,0.8,2.9,2,3.6c1.1,0.7,2.5,1,4.1,1c0.6,0,1.2,0,1.9-0.1c0.7-0.1,1.4-0.3,2-0.5
	c0.6-0.2,1.1-0.6,1.5-1.1c0.4-0.5,0.6-1.1,0.5-1.8c0-0.8-0.3-1.4-0.8-1.9c-0.5-0.5-1.2-0.9-2-1.2c-0.8-0.3-1.7-0.5-2.8-0.8
	s-2.1-0.4-3.2-0.7c-1.1-0.2-2.2-0.5-3.2-0.9c-1-0.3-1.9-0.8-2.8-1.4c-0.8-0.6-1.5-1.3-2-2.3c-0.5-0.9-0.7-2.1-0.7-3.4
	c0-1.5,0.4-2.7,1.1-3.7c0.7-1,1.6-1.8,2.7-2.4c1.1-0.6,2.3-1,3.6-1.3c1.3-0.2,2.6-0.4,3.8-0.4c1.4,0,2.7,0.1,4,0.4
	c1.3,0.3,2.4,0.8,3.4,1.4c1,0.7,1.9,1.5,2.5,2.6c0.7,1.1,1.1,2.3,1.3,3.8h-6.2c-0.3-1.4-0.9-2.4-2-2.9c-1-0.5-2.2-0.7-3.5-0.7
	c-0.4,0-0.9,0-1.5,0.1c-0.6,0.1-1.1,0.2-1.6,0.4c-0.5,0.2-0.9,0.5-1.3,0.8c-0.3,0.4-0.5,0.8-0.5,1.4c0,0.7,0.3,1.3,0.8,1.8
	c0.5,0.5,1.2,0.8,2,1.1c0.8,0.3,1.7,0.5,2.8,0.8c1,0.2,2.1,0.4,3.2,0.7c1.1,0.2,2.1,0.5,3.2,0.9c1,0.3,2,0.8,2.8,1.4
	c0.8,0.6,1.5,1.3,2,2.2c0.5,0.9,0.8,2,0.8,3.3c0,1.6-0.4,2.9-1.1,4.1c-0.7,1.1-1.7,2-2.8,2.7c-1.2,0.7-2.5,1.2-3.9,1.5
	c-1.4,0.3-2.8,0.5-4.2,0.5c-1.7,0-3.3-0.2-4.7-0.6c-1.4-0.4-2.7-1-3.7-1.7c-1.1-0.8-1.9-1.8-2.5-2.9c-0.6-1.2-0.9-2.5-1-4.1H186.6z"
	/>
<path class="st1" d="M223.7,242.6h5.9v5.6h-5.9V242.6z M223.7,252.9h5.9v26.9h-5.9V252.9z"/>
<path class="st1" d="M236.1,252.9h5.6v4l0.1,0.1c0.9-1.5,2.1-2.7,3.5-3.5s3.1-1.3,4.8-1.3c2.9,0,5.3,0.8,7,2.3
	c1.7,1.5,2.5,3.8,2.5,6.9v18.5h-5.9v-16.9c-0.1-2.1-0.5-3.6-1.4-4.6c-0.8-1-2.1-1.4-3.9-1.4c-1,0-1.9,0.2-2.7,0.5
	c-0.8,0.4-1.5,0.9-2,1.5c-0.6,0.6-1,1.4-1.3,2.3c-0.3,0.9-0.5,1.8-0.5,2.8v15.9h-5.9V252.9z"/>
<path class="st1" d="M285,267.9c0,1,0.1,2,0.4,3c0.3,1,0.7,1.8,1.3,2.5c0.6,0.7,1.3,1.3,2.2,1.7c0.9,0.4,2,0.6,3.2,0.6
	c1.7,0,3.1-0.4,4.2-1.1c1.1-0.7,1.8-1.9,2.4-3.4h5.6c-0.3,1.5-0.9,2.8-1.6,3.9c-0.8,1.1-1.7,2.1-2.8,2.9c-1.1,0.8-2.3,1.4-3.6,1.8
	c-1.3,0.4-2.7,0.6-4.2,0.6c-2.1,0-4-0.3-5.6-1c-1.6-0.7-3-1.7-4.1-2.9c-1.1-1.2-2-2.7-2.5-4.5c-0.6-1.7-0.9-3.6-0.9-5.7
	c0-1.9,0.3-3.7,0.9-5.4c0.6-1.7,1.5-3.2,2.6-4.5c1.1-1.3,2.5-2.3,4.1-3.1c1.6-0.8,3.4-1.1,5.4-1.1c2.1,0,4,0.4,5.7,1.3
	c1.7,0.9,3.1,2.1,4.2,3.5c1.1,1.5,1.9,3.1,2.4,5c0.5,1.9,0.6,3.8,0.4,5.8H285z M298.8,264c-0.1-0.9-0.3-1.8-0.6-2.7
	c-0.3-0.9-0.8-1.6-1.4-2.3c-0.6-0.6-1.3-1.2-2.1-1.6c-0.8-0.4-1.7-0.6-2.7-0.6c-1,0-2,0.2-2.8,0.5c-0.8,0.4-1.6,0.9-2.2,1.5
	c-0.6,0.6-1.1,1.4-1.5,2.3c-0.4,0.9-0.6,1.8-0.6,2.8H298.8z"/>
<path class="st1" d="M309.3,252.9h5.6v4l0.1,0.1c0.9-1.5,2.1-2.7,3.5-3.5s3.1-1.3,4.8-1.3c2.9,0,5.3,0.8,7,2.3
	c1.7,1.5,2.5,3.8,2.5,6.9v18.5H327v-16.9c-0.1-2.1-0.5-3.6-1.4-4.6c-0.8-1-2.1-1.4-3.9-1.4c-1,0-1.9,0.2-2.7,0.5
	c-0.8,0.4-1.5,0.9-2,1.5c-0.6,0.6-1,1.4-1.3,2.3c-0.3,0.9-0.5,1.8-0.5,2.8v15.9h-5.9V252.9z"/>
<path class="st1" d="M343.8,267.9c0,1,0.1,2,0.4,3c0.3,1,0.7,1.8,1.3,2.5c0.6,0.7,1.3,1.3,2.2,1.7c0.9,0.4,2,0.6,3.2,0.6
	c1.7,0,3.1-0.4,4.2-1.1c1.1-0.7,1.8-1.9,2.4-3.4h5.6c-0.3,1.5-0.9,2.8-1.6,3.9c-0.8,1.1-1.7,2.1-2.8,2.9c-1.1,0.8-2.3,1.4-3.6,1.8
	c-1.3,0.4-2.7,0.6-4.2,0.6c-2.1,0-4-0.3-5.6-1c-1.6-0.7-3-1.7-4.1-2.9c-1.1-1.2-2-2.7-2.5-4.5c-0.6-1.7-0.9-3.6-0.9-5.7
	c0-1.9,0.3-3.7,0.9-5.4c0.6-1.7,1.5-3.2,2.6-4.5c1.1-1.3,2.5-2.3,4.1-3.1c1.6-0.8,3.4-1.1,5.4-1.1c2.1,0,4,0.4,5.7,1.3
	c1.7,0.9,3.1,2.1,4.2,3.5c1.1,1.5,1.9,3.1,2.4,5c0.5,1.9,0.6,3.8,0.4,5.8H343.8z M357.6,264c-0.1-0.9-0.3-1.8-0.6-2.7
	c-0.3-0.9-0.8-1.6-1.4-2.3c-0.6-0.6-1.3-1.2-2.1-1.6c-0.8-0.4-1.7-0.6-2.7-0.6c-1,0-2,0.2-2.8,0.5c-0.8,0.4-1.6,0.9-2.2,1.5
	c-0.6,0.6-1.1,1.4-1.5,2.3c-0.4,0.9-0.6,1.8-0.6,2.8H357.6z"/>
<path class="st1" d="M368.1,252.9h5.6v5.2h0.1c0.2-0.7,0.5-1.4,1-2.1c0.5-0.7,1.1-1.3,1.8-1.9c0.7-0.6,1.5-1,2.4-1.4
	c0.9-0.3,1.8-0.5,2.7-0.5c0.7,0,1.2,0,1.4,0.1c0.3,0,0.5,0.1,0.8,0.1v5.7c-0.4-0.1-0.8-0.1-1.3-0.2c-0.4-0.1-0.9-0.1-1.3-0.1
	c-1,0-2,0.2-2.8,0.6c-0.9,0.4-1.7,1-2.3,1.8c-0.7,0.8-1.2,1.7-1.6,2.9c-0.4,1.1-0.6,2.5-0.6,4v12.8h-5.9V252.9z"/>
<path class="st1" d="M411.2,278.4c0,4.1-1.1,7.1-3.4,9.1c-2.3,2-5.5,3-9.8,3c-1.4,0-2.7-0.1-4.1-0.4c-1.4-0.3-2.6-0.7-3.7-1.4
	c-1.1-0.7-2.1-1.5-2.8-2.6c-0.8-1.1-1.2-2.4-1.4-4h5.9c0.2,0.8,0.5,1.5,0.9,2c0.4,0.5,0.9,0.9,1.5,1.2c0.6,0.3,1.2,0.5,1.9,0.6
	c0.7,0.1,1.4,0.1,2.2,0.1c2.4,0,4.1-0.6,5.3-1.8c1.1-1.2,1.7-2.9,1.7-5.1V275h-0.1c-0.8,1.5-2,2.7-3.4,3.5c-1.4,0.8-3,1.2-4.7,1.2
	c-2.1,0-4-0.4-5.5-1.1c-1.5-0.7-2.8-1.8-3.7-3.1c-1-1.3-1.7-2.8-2.2-4.5c-0.5-1.7-0.7-3.5-0.7-5.5c0-1.8,0.3-3.5,0.8-5.1
	c0.6-1.6,1.4-3.1,2.4-4.3c1-1.2,2.3-2.2,3.8-2.9c1.5-0.7,3.2-1.1,5.1-1.1c1.7,0,3.3,0.4,4.7,1.1c1.4,0.7,2.5,1.8,3.3,3.4h0.1v-3.7
	h5.9V278.4z M398.1,275.1c1.3,0,2.4-0.3,3.4-0.8c0.9-0.5,1.7-1.2,2.2-2.1c0.6-0.9,1-1.9,1.2-3c0.3-1.1,0.4-2.3,0.4-3.4
	s-0.1-2.3-0.4-3.3c-0.3-1.1-0.7-2-1.3-2.9c-0.6-0.8-1.3-1.5-2.2-2c-0.9-0.5-2-0.7-3.3-0.7c-1.3,0-2.4,0.3-3.3,0.8
	c-0.9,0.6-1.6,1.3-2.2,2.2c-0.6,0.9-1,1.9-1.2,3c-0.2,1.1-0.4,2.2-0.4,3.4c0,1.1,0.1,2.2,0.4,3.2c0.3,1.1,0.7,2,1.3,2.8
	s1.3,1.5,2.2,2C395.7,274.8,396.8,275.1,398.1,275.1z"/>
<path class="st1" d="M414.2,252.9h6.5l7,20.1h0.1l6.8-20.1h6.2l-10.5,28.3c-0.5,1.2-1,2.4-1.4,3.5c-0.5,1.1-1,2.1-1.7,2.9
	c-0.7,0.8-1.5,1.5-2.5,2c-1,0.5-2.3,0.8-3.8,0.8c-1.4,0-2.8-0.1-4.1-0.3v-5c0.5,0.1,1,0.1,1.4,0.2c0.5,0.1,0.9,0.1,1.4,0.1
	c0.7,0,1.3-0.1,1.7-0.3c0.5-0.2,0.8-0.4,1.1-0.8c0.3-0.3,0.5-0.7,0.8-1.2c0.2-0.5,0.4-1,0.6-1.6l0.7-2.1L414.2,252.9z"/>
<path class="st1" d="M463.3,267.9c0,1,0.1,2,0.4,3c0.3,1,0.7,1.8,1.3,2.5c0.6,0.7,1.3,1.3,2.2,1.7c0.9,0.4,2,0.6,3.2,0.6
	c1.7,0,3.1-0.4,4.2-1.1c1.1-0.7,1.8-1.9,2.4-3.4h5.6c-0.3,1.5-0.9,2.8-1.6,3.9c-0.8,1.1-1.7,2.1-2.8,2.9c-1.1,0.8-2.3,1.4-3.6,1.8
	c-1.3,0.4-2.7,0.6-4.2,0.6c-2.1,0-4-0.3-5.6-1c-1.6-0.7-3-1.7-4.1-2.9c-1.1-1.2-2-2.7-2.5-4.5c-0.6-1.7-0.9-3.6-0.9-5.7
	c0-1.9,0.3-3.7,0.9-5.4c0.6-1.7,1.5-3.2,2.6-4.5c1.1-1.3,2.5-2.3,4.1-3.1c1.6-0.8,3.4-1.1,5.4-1.1c2.1,0,4,0.4,5.7,1.3
	c1.7,0.9,3.1,2.1,4.2,3.5c1.1,1.5,1.9,3.1,2.4,5c0.5,1.9,0.6,3.8,0.4,5.8H463.3z M477.1,264c-0.1-0.9-0.3-1.8-0.6-2.7
	c-0.3-0.9-0.8-1.6-1.4-2.3c-0.6-0.6-1.3-1.2-2.1-1.6c-0.8-0.4-1.7-0.6-2.7-0.6c-1,0-2,0.2-2.8,0.5c-0.8,0.4-1.6,0.9-2.2,1.5
	c-0.6,0.6-1.1,1.4-1.5,2.3c-0.4,0.9-0.6,1.8-0.6,2.8H477.1z"/>
<path class="st1" d="M495.2,252.9h9.5v-2.2c0-1.7,0.2-3.1,0.6-4.1s1-1.9,1.7-2.4c0.7-0.6,1.5-1,2.4-1.1c0.9-0.2,1.8-0.3,2.8-0.3
	c1.9,0,3.3,0.1,4.2,0.4v4.6c-0.4-0.1-0.8-0.2-1.2-0.2c-0.4-0.1-0.9-0.1-1.5-0.1c-0.8,0-1.5,0.2-2.1,0.6c-0.6,0.4-0.9,1.1-0.9,2.2
	v2.8h5v4.4h-5v22.5h-5.9v-22.5h-9.5v22.5h-5.9v-22.5h-4.4v-4.4h4.4v-2.2c0-1.7,0.2-3.1,0.6-4.1s1-1.9,1.7-2.4c0.7-0.6,1.5-1,2.4-1.1
	s1.8-0.3,2.8-0.3c1.9,0,3.3,0.1,4.2,0.4v4.6c-0.4-0.1-0.8-0.2-1.2-0.2c-0.4-0.1-0.9-0.1-1.5-0.1c-0.8,0-1.5,0.2-2.1,0.6
	c-0.6,0.4-0.9,1.1-0.9,2.2V252.9z M519.5,242.6h5.9v5.6h-5.9V242.6z M519.5,252.9h5.9v26.9h-5.9V252.9z"/>
<path class="st1" d="M550.1,261.9c-0.2-1.7-0.9-2.9-2-3.8c-1.1-0.8-2.5-1.3-4.1-1.3c-0.8,0-1.6,0.1-2.4,0.4
	c-0.9,0.3-1.7,0.7-2.4,1.5c-0.7,0.7-1.3,1.7-1.8,3c-0.5,1.3-0.7,2.9-0.7,5c0,1.1,0.1,2.2,0.4,3.3c0.3,1.1,0.7,2.1,1.2,3
	c0.6,0.9,1.3,1.6,2.2,2.1c0.9,0.5,2,0.8,3.3,0.8c1.7,0,3.2-0.5,4.3-1.6c1.1-1.1,1.8-2.6,2.1-4.5h5.9c-0.6,3.5-1.9,6.2-4,8
	s-4.9,2.8-8.3,2.8c-2.1,0-4-0.4-5.6-1.1c-1.6-0.7-3-1.7-4.1-2.9c-1.1-1.2-2-2.7-2.5-4.4c-0.6-1.7-0.9-3.5-0.9-5.5
	c0-2,0.3-3.9,0.8-5.7c0.6-1.8,1.4-3.3,2.5-4.6c1.1-1.3,2.5-2.3,4.1-3.1c1.6-0.7,3.6-1.1,5.8-1.1c1.6,0,3,0.2,4.4,0.6
	c1.4,0.4,2.7,1,3.7,1.8c1.1,0.8,2,1.8,2.7,3c0.7,1.2,1.1,2.7,1.2,4.3H550.1z"/>
<path class="st1" d="M561,242.6h5.9v5.6H561V242.6z M561,252.9h5.9v26.9H561V252.9z"/>
<path class="st1" d="M578,267.9c0,1,0.1,2,0.4,3s0.7,1.8,1.3,2.5c0.6,0.7,1.3,1.3,2.2,1.7c0.9,0.4,2,0.6,3.2,0.6
	c1.7,0,3.1-0.4,4.2-1.1c1.1-0.7,1.8-1.9,2.4-3.4h5.6c-0.3,1.5-0.8,2.8-1.6,3.9c-0.8,1.1-1.7,2.1-2.8,2.9c-1.1,0.8-2.3,1.4-3.6,1.8
	c-1.3,0.4-2.7,0.6-4.2,0.6c-2.1,0-4-0.3-5.6-1c-1.6-0.7-3-1.7-4.1-2.9s-2-2.7-2.5-4.5c-0.6-1.7-0.9-3.6-0.9-5.7
	c0-1.9,0.3-3.7,0.9-5.4c0.6-1.7,1.5-3.2,2.6-4.5c1.1-1.3,2.5-2.3,4.1-3.1c1.6-0.8,3.4-1.1,5.4-1.1c2.1,0,4,0.4,5.7,1.3
	s3.1,2.1,4.2,3.5s1.9,3.1,2.4,5s0.6,3.8,0.4,5.8H578z M591.8,264c-0.1-0.9-0.3-1.8-0.6-2.7c-0.3-0.9-0.8-1.6-1.4-2.3
	c-0.6-0.6-1.3-1.2-2.1-1.6s-1.7-0.6-2.7-0.6c-1,0-2,0.2-2.8,0.5c-0.9,0.4-1.6,0.9-2.2,1.5c-0.6,0.6-1.1,1.4-1.5,2.3
	c-0.4,0.9-0.6,1.8-0.6,2.8H591.8z"/>
<path class="st1" d="M602.3,252.9h5.6v4l0.1,0.1c0.9-1.5,2.1-2.7,3.5-3.5c1.5-0.8,3.1-1.3,4.8-1.3c2.9,0,5.3,0.8,7,2.3
	c1.7,1.5,2.5,3.8,2.5,6.9v18.5h-5.9v-16.9c-0.1-2.1-0.5-3.6-1.4-4.6c-0.8-1-2.1-1.4-3.9-1.4c-1,0-1.9,0.2-2.7,0.5
	c-0.8,0.4-1.5,0.9-2,1.5c-0.6,0.6-1,1.4-1.3,2.3c-0.3,0.9-0.5,1.8-0.5,2.8v15.9h-5.9V252.9z"/>
<path class="st1" d="M650.3,261.9c-0.2-1.7-0.9-2.9-2-3.8c-1.1-0.8-2.5-1.3-4.1-1.3c-0.8,0-1.6,0.1-2.4,0.4
	c-0.9,0.3-1.7,0.7-2.4,1.5c-0.7,0.7-1.3,1.7-1.8,3c-0.5,1.3-0.7,2.9-0.7,5c0,1.1,0.1,2.2,0.4,3.3c0.3,1.1,0.7,2.1,1.2,3
	c0.6,0.9,1.3,1.6,2.2,2.1c0.9,0.5,2,0.8,3.3,0.8c1.7,0,3.2-0.5,4.3-1.6c1.1-1.1,1.8-2.6,2.1-4.5h5.9c-0.6,3.5-1.9,6.2-4,8
	s-4.9,2.8-8.3,2.8c-2.1,0-4-0.4-5.6-1.1s-3-1.7-4.1-2.9s-1.9-2.7-2.5-4.4s-0.9-3.5-0.9-5.5c0-2,0.3-3.9,0.8-5.7
	c0.6-1.8,1.4-3.3,2.5-4.6c1.1-1.3,2.5-2.3,4.1-3.1c1.6-0.7,3.6-1.1,5.8-1.1c1.6,0,3,0.2,4.4,0.6s2.7,1,3.7,1.8c1.1,0.8,2,1.8,2.7,3
	c0.7,1.2,1.1,2.7,1.2,4.3H650.3z"/>
<path class="st1" d="M658.1,252.9h6.5l7,20.1h0.1l6.8-20.1h6.2l-10.5,28.3c-0.5,1.2-1,2.4-1.4,3.5c-0.5,1.1-1,2.1-1.7,2.9
	s-1.5,1.5-2.5,2c-1,0.5-2.3,0.8-3.8,0.8c-1.4,0-2.8-0.1-4.1-0.3v-5c0.5,0.1,1,0.1,1.4,0.2c0.5,0.1,0.9,0.1,1.4,0.1
	c0.7,0,1.3-0.1,1.7-0.3c0.5-0.2,0.8-0.4,1.1-0.8c0.3-0.3,0.5-0.7,0.8-1.2c0.2-0.5,0.4-1,0.6-1.6l0.7-2.1L658.1,252.9z"/>
</svg>
