<?xml version="1.0" encoding="utf-8"?>
<!-- Generator: Adobe Illustrator 19.1.0, SVG Export Plug-In . SVG Version: 6.00 Build 0)  -->
<svg version="1.1" id="Layer_1" xmlns="http://www.w3.org/2000/svg" xmlns:xlink="http://www.w3.org/1999/xlink" x="0px" y="0px"
	 viewBox="0 0 162.1 40" style="enable-background:new 0 0 162.1 40;" xml:space="preserve">
<style type="text/css">
	.st0{fill:#51AE43;}
	.st1{fill:#2A4191;}
	.st2{fill:url(#SVGID_1_);}
	.st3{fill:url(#SVGID_2_);}
</style>
<g>
	<path class="st0" d="M7.3,9.6c3.3,0,6.1,1.8,6.5,5.2h-2.6c-0.3-2-2-3-3.9-3c-3.3,0-4.6,2.9-4.6,5.8s1.4,5.8,4.6,5.8
		c2.8,0.1,4.2-1.6,4.3-4.2H7.5v-2H14v8h-1.7l-0.4-1.8c-1.4,1.6-2.7,2.2-4.6,2.2c-4.5,0-7.3-3.6-7.3-8C0,13.2,2.8,9.6,7.3,9.6z"/>
	<path class="st0" d="M15.7,14.1H18v2.1h0c0.3-1.2,1.7-2.4,3.2-2.4c0.6,0,0.7,0,0.9,0.1v2.3c-0.3-0.1-0.7-0.1-1-0.1
		c-1.6,0-3,1.3-3,3.8v5.3h-2.4L15.7,14.1L15.7,14.1z"/>
	<path class="st0" d="M24,20.3c0,1.7,0.9,3.3,3,3.3c1.4,0,2.3-0.6,2.7-1.8H32c-0.5,2.4-2.6,3.8-5,3.8c-3.5,0-5.4-2.4-5.4-5.8
		c0-3.1,2-5.8,5.3-5.8c3.5,0,5.6,3.1,5.2,6.4L24,20.3L24,20.3z M29.7,18.7c-0.1-1.5-1.1-2.9-2.8-2.9c-1.7,0-2.8,1.3-2.9,2.9H29.7z"
		/>
	<path class="st0" d="M35,20.3c0,1.7,0.9,3.3,3,3.3c1.4,0,2.3-0.6,2.7-1.8H43c-0.5,2.4-2.6,3.8-5,3.8c-3.5,0-5.4-2.4-5.4-5.8
		c0-3.1,2-5.8,5.3-5.8c3.5,0,5.6,3.1,5.2,6.4L35,20.3L35,20.3z M40.7,18.7c-0.1-1.5-1.1-2.9-2.8-2.9c-1.7,0-2.8,1.3-2.9,2.9H40.7z"
		/>
	<path class="st0" d="M44.1,14.1h2.3v1.6l0,0c0.7-1.2,2-2,3.4-2c2.4,0,3.9,1.3,3.9,3.8v7.6h-2.4v-6.9c-0.1-1.7-0.7-2.5-2.2-2.5
		c-1.6,0-2.7,1.3-2.7,2.9v6.5h-2.4L44.1,14.1L44.1,14.1z"/>
	<path class="st0" d="M99.8,28.5H0.1v1.8h101.2C100.8,29.7,100.2,29.1,99.8,28.5z"/>
	<path class="st1" d="M64.7,19.6c0-3.4,1.9-5.8,5.2-5.8c3.3,0,5.2,2.5,5.2,5.8c0,3.4-1.9,5.8-5.2,5.8C66.6,25.5,64.7,23,64.7,19.6z
		 M72.7,19.6c0-1.9-0.9-3.9-2.9-3.9c-2,0-2.9,2-2.9,3.9c0,1.9,0.9,3.9,2.9,3.9C71.8,23.5,72.7,21.5,72.7,19.6z"/>
	<path class="st1" d="M76.1,14.1h2.1v1.5h0c0.6-1.3,1.8-1.8,3.2-1.8c3.2,0,4.8,2.6,4.8,5.9c0,3-1.4,5.8-4.4,5.8
		c-1.3,0-2.7-0.5-3.4-1.7h0v6.6h-2.3L76.1,14.1L76.1,14.1z M81.2,15.7c-1.9,0-2.9,1.5-2.9,3.9c0,2.2,1,3.9,2.9,3.9
		c2.1,0,2.8-2,2.8-3.9C84,17.7,83,15.7,81.2,15.7z"/>
	<path class="st1" d="M89,21.6c0.1,1.4,1.1,1.9,2.3,1.9c0.9,0,2.3-0.2,2.3-1.5c-0.1-1.3-1.7-1.4-3.3-1.8c-1.7-0.4-3.3-1-3.3-3.3
		c0-2.4,2.4-3.2,4.3-3.2c2.1,0,4,0.9,4.3,3.4h-2.4c-0.2-1.2-1.1-1.5-2.1-1.5c-0.7,0-1.9,0.2-1.9,1.1c0,1.2,1.7,1.4,3.3,1.8
		c1.6,0.4,3.3,1,3.3,3.2c0,2.6-2.5,3.6-4.6,3.6c-2.6,0-4.5-1.2-4.5-3.8L89,21.6L89,21.6z"/>
	<g>
		<path class="st1" d="M4.7,39.8v-3.3c0-0.9-0.2-1.2-1.3-1.2H2.3v3.2c0,1.1-0.4,1.4-1.2,1.4c-0.3,0-0.7-0.2-0.7-0.2v-0.7
			c0.3,0.3,0.9,0.2,0.9-0.5v-3.8h2.2c1.9,0,2.1,0.3,2.1,2.1c0,1.3,0,3,0,3H4.7z"/>
		<path class="st1" d="M6.7,37.7v-2c0-0.3-0.1-0.9-0.2-1h0.9c0,0,0.2,0.3,0.2,1v1.9L6.7,37.7L6.7,37.7z"/>
		<path class="st1" d="M10.9,40c-1.9,0-2.3-1.6-2.3-2.4v-2.9h0.9v2.9c0,0.7,0.4,1.6,1.4,1.6c1.1,0,1.3-1.1,1.3-1.8
			c0-1.4-0.2-2.1-1-2.1c-0.6,0-0.7,0.2-0.7,0.2v-0.7c0-0.1,0.3-0.3,0.8-0.3c1.4,0,1.9,0.7,1.9,2.9C13.2,39,12.5,40,10.9,40z"/>
		<path class="st1" d="M16,39.8c-0.3-0.2-0.1-0.9-0.4-0.9c-0.2,0-0.1,1-1.2,1c-0.6,0-0.7-0.2-0.7-0.2V39c0.9,0.5,2-0.1,2-1.8
			c0-0.1,0-0.5,0-0.5c0-0.7-0.2-1.3-1.1-1.3c0,0-0.4,0-0.7,0v-0.7h1.1c0.9,0,1.7,0.5,1.7,2c0,1,0,2,0,2.1c0,0.5,0.2,0.9,0.2,1H16z"
			/>
		<path class="st1" d="M19.9,39.8v-3.2c0-1-0.2-1.2-1.3-1.2h-1.5v-0.7H19c1.4,0,1.8,0.4,1.8,1.7v3.4L19.9,39.8L19.9,39.8z"/>
		<path class="st1" d="M21.4,39.8v-0.7h1.8v-2.3c0-1-0.2-1.5-1-1.5h-0.7v-0.7h1c0.9,0,1.6,0.5,1.6,1.8v3.3H21.4z"/>
		<path class="st1" d="M28.3,39.8l-2.1-3l-0.6,3h-0.9l0.9-3.9l-0.9-1.2h1.1l1.8,2.7l0.6-2.7h1l-1,3.5l1.1,1.6H28.3z"/>
		<path class="st1" d="M35.9,39.8v-3.3c0-0.9-0.2-1.2-1.3-1.2h-1.2v3.2c0,1.1-0.4,1.4-1.2,1.4c-0.3,0-0.7-0.2-0.7-0.2v-0.7
			c0.3,0.3,0.9,0.2,0.9-0.5v-3.8h2.2c1.9,0,2.1,0.3,2.1,2.1c0,1.3,0,3,0,3H35.9z"/>
		<path class="st1" d="M38,39.8v-4.1c0-0.3-0.1-0.9-0.2-1h0.9c0,0,0.2,0.3,0.2,1v4.1L38,39.8L38,39.8z"/>
		<path class="st1" d="M42.4,39.8h-0.9l0.5-3.1c0.1-0.7,0.3-1.3-0.7-1.3c-0.4,0-1.1,0-1.1,0c-0.5,0-1-0.2-1-0.9c0,0,0-1,0-1
			c0-0.6-0.2-1-0.2-1h1c0,0,0.2,0.3,0.2,0.9c0,1.3,0,1.3,0.6,1.3h1.1c1.5,0,1.1,1.2,1,2L42.4,39.8z"/>
		<path class="st1" d="M46,39.8h-2.5v-0.7H45l-1.5-4.4h1l1.5,4.4c0.5,0,1.1-0.3,1.1-1.5v-2.9H48c0,0,0,1.8,0,2.9
			C48,39.2,47.2,39.8,46,39.8z"/>
		<path class="st1" d="M49,37.7v-2c0-0.3-0.1-0.9-0.2-1h0.9c0,0,0.2,0.3,0.2,1v1.9L49,37.7L49,37.7z"/>
		<path class="st1" d="M51,37.7v-2c0-0.3-0.1-0.9-0.2-1h0.9c0,0,0.2,0.3,0.2,1v1.9L51,37.7L51,37.7z"/>
		<path class="st1" d="M56.6,39.8v-3.3c0-0.9-0.2-1.2-1.3-1.2h-1.2v3.2c0,1.1-0.4,1.4-1.2,1.4c-0.3,0-0.7-0.2-0.7-0.2v-0.7
			c0.3,0.3,0.9,0.2,0.9-0.5v-3.8h2.2c1.9,0,2.1,0.3,2.1,2.1c0,1.3,0,3,0,3H56.6z"/>
		<path class="st1" d="M61.8,39.8v-3c0-1.1-0.2-1.5-1.4-1.5h-2.1v-0.7h2.1c1.6,0,2.2,0.3,2.2,2.1v3H61.8z M58.4,39.8v-3h0.9v3H58.4z
			"/>
		<path class="st1" d="M63.4,39.8v-0.7h1.3c1.1,0,1.5-0.9,1.5-2c0-1.2-0.6-1.8-1.6-1.8h-1.2v-0.7h1.2c1.5,0,2.6,0.5,2.6,2.4
			c0,1.8-1,1.8-1,2c0,0.1,0.4,0,0.7,0h0.8v0.7L63.4,39.8L63.4,39.8z"/>
		<path class="st1" d="M70.7,39.8v-5.1c1.1,0,2.8,0,2.8,0c1.4,0,1.8,0.4,1.8,1.7c0,0.7,0,3.4,0,3.4S72,39.8,70.7,39.8z M74.4,36.6
			c0-1-0.2-1.2-1.4-1.2h-1.4v3.8h2.8L74.4,36.6L74.4,36.6z"/>
		<path class="st1" d="M76.4,37.7v-2c0-0.3-0.1-0.9-0.2-1h0.9c0,0,0.2,0.3,0.2,1v1.9L76.4,37.7L76.4,37.7z"/>
		<path class="st1" d="M81.9,39.8v-2.9c0-1.1-0.2-1.5-1.2-1.5h-1.4v4.4h-0.9v-5.1l2.4,0c1.5,0,2.1,0.5,2.1,2v3.1L81.9,39.8
			L81.9,39.8z"/>
		<path class="st1" d="M86,39.8v-0.7c0.7,0.2,1.6,0.2,1.6-0.9v-1.6c0-0.4,0-1.4-1.1-1.4c-1,0-1.6,1.1-1.6,2v2.6H84v-4
			c0-0.3,0-0.6-0.1-1.1h0.9c0.1,0.3,0.1,0.6,0.1,1.1c0,0.1,0.1,0.1,0.1,0c0,0,0.4-1.2,1.7-1.2c1.9,0,1.8,1.4,1.8,2.1v1.7
			C88.5,39.9,87.3,40.2,86,39.8z"/>
		<path class="st1" d="M89.6,39.8v-4.1c0-0.3-0.1-0.9-0.2-1h0.9c0,0,0.2,0.3,0.2,1v4.1L89.6,39.8L89.6,39.8z"/>
		<path class="st1" d="M93.8,39.8v-0.7c0.7,0.2,1.6,0.2,1.6-0.9v-1.6c0-0.4,0-1.4-1.1-1.4c-1,0-1.6,1.1-1.6,2v2.6h-0.9v-4
			c0-0.3,0-0.6-0.1-1.1h0.9c0.1,0.3,0.1,0.6,0.1,1.1c0,0.1,0.1,0.1,0.1,0c0,0,0.4-1.2,1.7-1.2c1.9,0,1.8,1.4,1.8,2.1v1.7
			C96.4,39.9,95.2,40.2,93.8,39.8z"/>
	</g>
	
		<linearGradient id="SVGID_1_" gradientUnits="userSpaceOnUse" x1="97.7608" y1="18.8587" x2="129.0213" y2="18.8587" gradientTransform="matrix(1 0 0 -1 0 37.5163)">
		<stop  offset="0" style="stop-color:#CA2424"/>
		<stop  offset="1" style="stop-color:#EA7A06"/>
	</linearGradient>
	<path class="st2" d="M127.2,25.5v-6.4c0-1.2-0.7-1.9-1.9-1.9c-1.9,0-2.8,1.3-2.8,3v5.4H121V16h1.5v1.5h-0.1
		c0.7-1.2,1.7-1.7,3.1-1.7c2.5,0,3.3,1.4,3.3,3.5v2c0.2-0.9,0.2-1.7,0.2-2.6c0-8.7-7-15.7-15.6-15.7s-15.6,7-15.6,15.7
		s7,15.8,15.6,15.8c6.2,0,11.6-3.6,14.1-8.9L127.2,25.5L127.2,25.5z M119.9,25.5h-9.1V12.3h8.9v1.5h-7.3v4.1h6.8v1.5h-6.8V24h7.4
		V25.5z"/>
	
		<linearGradient id="SVGID_2_" gradientUnits="userSpaceOnUse" x1="129.8655" y1="14.9797" x2="162.0906" y2="14.9797" gradientTransform="matrix(1 0 0 -1 0 37.5163)">
		<stop  offset="0" style="stop-color:#CA2424"/>
		<stop  offset="1" style="stop-color:#EA7A06"/>
	</linearGradient>
	<path class="st3" d="M138.4,22.5c-0.4,2.1-1.9,3.2-4,3.2c-3,0-4.4-2.1-4.5-5c0-2.9,1.9-4.9,4.4-4.9c3.3,0,4.4,3.1,4.3,5.4h-7.1
		c-0.1,1.6,0.9,3.1,2.9,3.1c1.3,0,2.2-0.6,2.5-1.8L138.4,22.5L138.4,22.5z M136.9,19.8c-0.1-1.5-1.2-2.7-2.7-2.7
		c-1.6,0-2.6,1.2-2.7,2.7H136.9z M139.4,16h1.5v2h0c0.7-1.5,1.8-2.3,3.5-2.2v1.6c-2.5,0-3.4,1.4-3.4,3.8v4.2h-1.6V16z M152.7,24.7
		c0,3.1-1.4,4.6-4.4,4.6c-1.8,0-3.8-0.7-3.9-2.8h1.6c0.1,1.1,1.4,1.5,2.5,1.5c2,0,2.8-1.5,2.8-3.6v-0.6h0c-0.5,1.2-1.7,1.7-2.9,1.7
		c-2.8,0-4.2-2.2-4.2-4.8c0-2.2,1.1-5,4.4-5c1.2,0,2.2,0.5,2.8,1.6h0V16h1.5L152.7,24.7L152.7,24.7z M151.1,20.5
		c0-1.7-0.7-3.4-2.7-3.4c-2,0-2.8,1.6-2.8,3.4c0,1.7,0.6,3.6,2.7,3.6C150.3,24.2,151.1,22.3,151.1,20.5z M158,26.7
		c-0.7,1.8-1.4,2.5-2.7,2.5c-0.4,0-0.7,0-1.1-0.2v-1.4c0.3,0.1,0.6,0.2,0.9,0.2c0.6,0,1-0.3,1.3-0.9l0.6-1.6l-3.7-9.4h1.8l2.8,7.7h0
		l2.7-7.7h1.6L158,26.7z"/>
	<polygon class="st1" points="82.6,0.1 83.9,1.8 76.7,7.5 71.4,4.7 53.8,14.6 58.4,14.6 60.4,13.6 60.4,25.2 62.9,25.2 62.9,12.1 
		71.5,7.4 76.7,10.5 85.2,3.5 86.4,5.1 88,0 	"/>
</g>
</svg>
