<svg style="position: absolute; width: 0; height: 0;" width="0" height="0" version="1.1" xmlns="http://www.w3.org/2000/svg" xmlns:xlink="http://www.w3.org/1999/xlink"> <defs> <symbol id="icon-amp" viewBox="0 0 656 1024"> <path  class="path1 fill-color1" d="M293.037 1025.628l-133.494-403.739h105.819l26.048-112.331h-291.409l122.099-509.558h258.849l-66.747 293.037h289.781l-79.771 328.852h130.238l-361.412 403.739zM205.126 654.448l100.935 306.060 275.129-306.060h-97.679l79.771-328.852h-289.781l66.747-293.037h-193.73l-105.819 444.439h291.409l-42.328 177.45h-84.655z"></path> </symbol> <symbol id="icon-device" viewBox="0 0 754 1024"> <path  class="path1 fill-color1" d="M589.22 1024h-107.436v-129.259h-52.039v129.259h-107.436v-129.259h-50.361v129.259h-107.436v-129.259h-110.793c-30.216 0-53.718-23.502-53.718-53.718v-787.305c0-30.216 23.502-53.718 53.718-53.718h646.295c30.216 0 53.718 23.502 53.718 53.718v787.305c0 30.216-23.502 53.718-53.718 53.718h-110.793v129.259zM515.357 990.426h40.289v-85.613h-40.289v85.613zM355.882 990.426h40.289v-85.613h-40.289v85.613zM198.085 990.426h40.289v-85.613h-40.289v85.613zM53.718 33.574c-11.751 0-20.144 8.393-20.144 20.144v787.305c0 11.751 8.393 20.144 20.144 20.144h646.295c11.751 0 20.144-8.393 20.144-20.144v-787.305c0-11.751-8.393-20.144-20.144-20.144h-646.295zM663.082 668.118h-574.111v-562.361h559.003v16.787h15.108v545.574zM122.544 634.544h506.964v-495.213h-506.964v495.213zM594.256 510.321h-434.78v-104.079h434.78v104.079zM193.049 476.748h367.633v-36.931h-367.633v36.931zM553.967 332.38h-100.721v-115.83h100.721v115.83zM486.82 298.807h33.574v-48.682h-33.574v48.682zM426.387 332.38h-99.043v-115.83h99.043v115.83zM360.918 298.807h31.895v-48.682h-31.895v48.682zM290.413 332.38h-99.043v-115.83h99.043v115.83zM224.944 298.807h31.895v-48.682h-31.895v48.682z"></path> </symbol> <symbol id="icon-truck" viewBox="0 0 1513 1024"> <path  class="path1 fill-color1" d="M305.548 1024c-77.626 0-142.039-64.413-142.039-142.039s64.413-142.039 142.039-142.039 142.039 64.413 142.039 142.039-64.413 142.039-142.039 142.039zM305.548 772.955c-59.458 0-109.006 49.548-109.006 109.006s49.548 109.006 109.006 109.006 109.006-49.548 109.006-109.006c0-59.458-49.548-109.006-109.006-109.006zM1207.329 1019.045c-77.626 0-142.039-64.413-142.039-142.039s64.413-142.039 142.039-142.039 142.039 64.413 142.039 142.039-64.413 142.039-142.039 142.039zM1207.329 768c-59.458 0-109.006 49.548-109.006 109.006s49.548 109.006 109.006 109.006c59.458 0 109.006-49.548 109.006-109.006s-49.548-109.006-109.006-109.006zM1514.529 891.871h-151.948v-16.516c-1.652-84.232-71.019-153.6-155.252-153.6-82.581 0-151.948 67.716-153.6 151.948v16.516h-594.581v-16.516c-1.652-47.897-24.774-90.839-66.065-118.916l-42.942-29.729h551.639v-465.755h419.51l122.219 260.955 71.019 54.503v317.11zM1393.961 858.839h87.535v-269.213l-64.413-47.897-115.613-247.742h-366.658v465.755h-488.877c24.774 28.077 39.639 62.761 44.594 99.097h530.168c9.91-94.142 89.187-168.465 184.981-168.465 97.445-1.652 178.374 72.671 188.284 168.465zM148.645 890.219h-148.645v-165.161h257.652l-41.29 29.729c-39.639 28.077-62.761 71.019-66.065 118.916l-1.652 16.516zM33.032 857.187h85.884c4.955-36.335 21.471-71.019 44.594-99.097h-130.477v99.097zM873.703 698.632h-872.052v-698.632h872.052v698.632zM34.684 665.6h805.987v-632.568h-805.987v632.568z"></path> </symbol> <symbol id="icon-service" viewBox="0 0 1038 1024"> <path class="path1 fill-color5" d="M711.189 829.019h-68.734l-36.471 106.608h77.151l-23.847 88.373h5.611l86.97-131.858h-64.526l23.847-63.123zM1038.027 1024h-203.397v-405.392c43.485 8.416 82.762 18.236 117.83 53.304 40.679 40.679 65.929 99.595 70.137 154.301 4.208 64.526 9.819 131.858 15.43 197.786zM750.466 597.567h-1.403v200.592h-461.501v-200.592c23.847-8.416 44.888-21.041 64.526-36.471 100.997 103.803 234.258 105.205 333.852 0 19.638 15.43 40.679 28.055 64.526 36.471zM201.995 620.011v403.989h-201.995c5.611-65.929 11.222-133.26 14.027-196.384 4.208-56.11 29.458-113.622 70.137-154.301 35.068-35.068 74.345-44.888 117.83-53.304zM360.504 295.978l-14.027-28.055c-5.611-5.611-9.819-9.819-15.43-9.819-14.027 0-22.444 29.458-18.236 65.929 5.611 36.471 21.041 65.929 35.068 65.929 4.208 0 5.611 2.805 7.014 5.611 16.833 67.332 56.11 124.844 116.427 147.288 30.86 11.222 64.526 11.222 95.386 0 60.318-22.444 99.595-79.956 116.427-147.288 1.403-4.208 2.805-5.611 7.014-5.611 15.43 0 30.86-29.458 35.068-65.929s-4.208-65.929-18.236-65.929c-5.611 0-11.222 4.208-15.43 9.819l-14.027 29.458c-5.611 12.625-11.222 15.43-28.055 11.222-91.178-25.249-169.732-25.249-260.91 0-15.43 4.208-22.444 0-28.055-12.625zM733.633 231.452c28.055 19.638 29.458 67.332 25.249 96.789s-16.833 75.748-46.29 92.581c-21.041 68.734-64.526 130.455-133.26 155.704-37.874 14.027-81.359 14.027-119.233 0-68.734-25.249-112.219-86.97-133.26-155.704-29.458-15.43-43.485-61.721-46.29-92.581-4.208-30.86-1.403-77.151 25.249-96.789l15.43-108.011c9.819-67.332 53.304-86.97 112.219-108.011s117.83-18.236 178.148 0c58.915 18.236 103.803 40.679 112.219 108.011l9.819 108.011z"></path> </symbol> <symbol id="icon-amps" viewBox="0 0 1059 1024"> <path  class="path1 fill-color5" d="M530.054 0c166.093 0 304.745 124.209 324.965 287.413h205.089v79.436h-205.089c-20.22 164.649-158.872 287.413-324.965 287.413s-304.745-124.209-324.965-287.413h-205.089v-79.436h205.089c18.776-163.205 158.872-287.413 324.965-287.413v0zM530.054 79.436c-137.207 0-248.417 111.21-248.417 248.417s111.21 248.417 248.417 248.417 248.417-111.21 248.417-248.417c-1.444-137.207-112.654-248.417-248.417-248.417v0zM681.704 479.504h-66.437l-25.997-69.326h-121.32l-24.553 69.326h-64.993l118.432-303.3h64.993l119.876 303.3zM569.049 359.628l-41.884-112.654-40.44 112.654c0 0 82.324 0 82.324 0z"></path> <path  class="path2 fill-color5" d="M66.437 904.124l27.441-2.889c1.444 7.221 2.889 12.999 7.221 15.887 4.333 4.333 8.666 5.777 14.443 5.777s11.554-2.889 14.443-7.221c4.333-4.333 5.777-10.11 5.777-18.776 0-7.221-1.444-12.999-5.777-17.331s-8.666-5.777-14.443-5.777c-4.333 0-8.666 0-12.999 2.889l4.333-24.553c7.221 0 14.443-1.444 17.331-5.777 4.333-2.889 5.777-8.666 5.777-14.443s-1.444-8.666-4.333-11.554-7.221-4.333-11.554-4.333-8.666 1.444-12.999 5.777c-2.889 2.889-5.777 8.666-5.777 14.443l-27.441-4.333c1.444-8.666 4.333-15.887 8.666-21.664s8.666-10.11 15.887-12.999 14.443-4.333 23.109-4.333c14.443 0 25.997 4.333 34.663 12.999 7.221 7.221 10.11 15.887 10.11 24.553 0 12.999-7.221 24.553-21.664 31.774 8.666 1.444 15.887 5.777 20.22 12.999 5.777 5.777 7.221 14.443 7.221 23.109 0 12.999-4.333 24.553-14.443 34.663-10.11 8.666-21.664 14.443-36.107 14.443s-24.553-4.333-34.663-11.554c-7.221-8.666-12.999-18.776-14.443-31.774z"></path> <path  class="path3 fill-color5" d="M233.975 791.47c14.443 0 25.997 5.777 34.663 15.887 10.11 12.999 14.443 33.219 14.443 62.104s-4.333 49.106-14.443 62.104c-8.666 10.11-20.22 15.887-34.663 15.887s-25.997-5.777-36.107-17.331c-8.666-11.554-12.999-31.774-12.999-60.66s4.333-49.106 14.443-62.104c8.666-10.11 20.22-15.887 34.663-15.887zM233.975 816.023c-2.889 0-7.221 1.444-10.11 2.889-2.889 2.889-4.333 5.777-5.777 11.554-1.444 7.221-2.889 20.22-2.889 37.551s1.444 30.33 2.889 36.107c1.444 7.221 4.333 11.554 7.221 12.999 2.889 2.889 5.777 2.889 8.666 2.889s7.221-1.444 10.11-2.889c2.889-2.889 4.333-5.777 5.777-11.554 1.444-7.221 2.889-20.22 2.889-37.551s-1.444-30.33-2.889-36.107c-1.444-7.221-4.333-11.554-7.221-12.999-1.444-1.444-4.333-2.889-8.666-2.889z"></path> <path  class="path4 fill-color5" d="M352.406 791.47c14.443 0 25.997 5.777 34.663 15.887 10.11 12.999 14.443 33.219 14.443 62.104s-4.333 49.106-14.443 62.104c-8.666 10.11-20.22 15.887-34.663 15.887s-25.997-5.777-36.107-17.331c-8.666-11.554-12.999-31.774-12.999-60.66s4.333-49.106 14.443-62.104c8.666-10.11 20.22-15.887 34.663-15.887zM352.406 816.023c-2.889 0-7.221 1.444-10.11 2.889-2.889 2.889-4.333 5.777-5.777 11.554-1.444 7.221-2.889 20.22-2.889 37.551s1.444 30.33 2.889 36.107c1.444 7.221 4.333 11.554 7.221 12.999 2.889 2.889 5.777 2.889 8.666 2.889s7.221-1.444 10.11-2.889c2.889-2.889 4.333-5.777 5.777-11.554 1.444-7.221 2.889-20.22 2.889-37.551s-1.444-30.33-2.889-36.107c-1.444-7.221-4.333-11.554-7.221-12.999-1.444-1.444-5.777-2.889-8.666-2.889z"></path> <path  class="path5 fill-color5" d="M470.838 791.47c14.443 0 25.997 5.777 34.663 15.887 10.11 12.999 14.443 33.219 14.443 62.104s-4.333 49.106-14.443 62.104c-8.666 10.11-20.22 15.887-34.663 15.887s-25.997-5.777-36.107-17.331c-8.666-11.554-12.999-31.774-12.999-60.66s4.333-49.106 14.443-62.104c7.221-10.11 18.776-15.887 34.663-15.887zM470.838 816.023c-2.889 0-7.221 1.444-10.11 2.889-2.889 2.889-4.333 5.777-5.777 11.554-1.444 7.221-2.889 20.22-2.889 37.551s1.444 30.33 2.889 36.107c1.444 7.221 4.333 11.554 7.221 12.999 2.889 2.889 5.777 2.889 8.666 2.889s7.221-1.444 10.11-2.889c2.889-2.889 4.333-5.777 5.777-11.554 1.444-7.221 2.889-20.22 2.889-37.551s-1.444-30.33-2.889-36.107c-1.444-7.221-4.333-11.554-7.221-12.999s-5.777-2.889-8.666-2.889z"></path> <path  class="path6 fill-color5" d="M681.704 944.564h-33.219l-12.999-34.663h-60.66l-12.999 34.663h-31.774l59.216-151.65h31.774l60.66 151.65zM625.377 883.904l-20.22-56.327-20.22 56.327h40.44z"></path> <path class="path7 fill-color5" d="M696.147 834.798h25.997v14.443c10.11-11.554 21.664-17.331 34.663-17.331 7.221 0 12.999 1.444 18.776 4.333s10.11 7.221 12.999 12.999c4.333-5.777 10.11-10.11 15.887-12.999s11.554-4.333 17.331-4.333c8.666 0 14.443 1.444 20.22 4.333s10.11 8.666 12.999 14.443c1.444 4.333 2.889 12.999 2.889 23.109v70.77h-28.886v-63.549c0-11.554-1.444-17.331-2.889-21.664-2.889-4.333-7.221-5.777-12.999-5.777-4.333 0-7.221 1.444-11.554 4.333-2.889 2.889-5.777 5.777-7.221 11.554-1.444 4.333-2.889 12.999-2.889 23.109v53.439h-28.886v-60.66c0-10.11 0-17.331-1.444-20.22s-2.889-5.777-4.333-7.221c-2.889-1.444-5.777-2.889-8.666-2.889-4.333 0-8.666 1.444-11.554 2.889-2.889 2.889-5.777 5.777-7.221 10.11s-2.889 11.554-2.889 23.109v53.439h-28.886v-109.766h-1.444z"></path> <path class="path8 fill-color5" d="M885.348 834.798h27.441v15.887c2.889-5.777 8.666-10.11 14.443-12.999s12.999-5.777 20.22-5.777c12.999 0 23.109 4.333 31.774 14.443s12.999 24.553 12.999 41.884c0 18.776-4.333 33.219-12.999 43.329s-20.22 15.887-33.219 15.887c-5.777 0-11.554-1.444-15.887-4.333s-10.11-7.221-15.887-12.999v54.883h-28.886c0 0 0-150.206 0-150.206zM914.234 888.237c0 12.999 2.889 21.664 7.221 27.441s11.554 8.666 17.331 8.666c7.221 0 12.999-2.889 17.331-8.666s7.221-14.443 7.221-25.997-2.889-20.22-7.221-25.997c-4.333-5.777-10.11-8.666-17.331-8.666s-12.999 2.889-17.331 8.666-7.221 12.999-7.221 24.553z"></path> </symbol> <symbol id="icon-amps2" viewBox="0 0 1099 1024"> <path  class="path1 fill-color5" d="M550.231 0c172.416 0 316.346 128.937 337.335 298.354h212.896v82.46h-212.896c-20.99 170.917-164.919 298.354-337.335 298.354s-316.346-128.937-337.335-298.354h-212.896v-82.46h212.896c19.49-169.417 164.919-298.354 337.335-298.354v0zM550.231 82.46c-142.43 0-257.874 115.444-257.874 257.874s115.444 257.874 257.874 257.874c142.43 0 257.874-115.444 257.874-257.874-1.499-142.43-116.943-257.874-257.874-257.874v0zM707.654 497.757h-68.966l-26.987-71.965h-125.939l-25.488 71.965h-67.467l122.94-314.846h67.467l124.439 314.846zM590.712 373.318l-43.479-116.943-41.98 116.943h85.458z"></path> <path class="path2 fill-color5" d="M146.928 980.521h-29.985v-113.944c-10.495 10.495-23.988 17.991-38.981 22.489v-26.987c7.496-2.999 16.492-7.496 25.488-14.993s14.993-14.993 19.49-25.488h23.988v158.922z"></path> <path  class="path3 fill-color5" d="M293.857 952.035v28.486h-106.448c1.499-10.495 4.498-20.99 10.495-29.985s16.492-22.489 34.483-37.482c13.493-11.994 22.489-20.99 25.488-25.488 4.498-5.997 5.997-11.994 5.997-17.991s-1.499-11.994-5.997-14.993-8.996-5.997-14.993-5.997c-5.997 0-11.994 1.499-14.993 5.997s-5.997 10.495-5.997 19.49l-29.985-2.999c1.499-16.492 7.496-28.486 16.492-35.982s20.99-10.495 35.982-10.495c14.993 0 26.987 4.498 35.982 11.994s13.493 19.49 13.493 31.485c0 7.496-1.499 13.493-4.498 19.49s-5.997 13.493-11.994 19.49c-2.999 4.498-10.495 11.994-19.49 19.49s-14.993 14.993-17.991 17.991c-2.999 2.999-4.498 5.997-5.997 8.996h59.971z"></path> <path  class="path4 fill-color5" d="M365.821 821.599c14.993 0 26.987 5.997 35.982 16.492 10.495 13.493 14.993 34.483 14.993 64.469s-4.498 50.975-14.993 64.469c-8.996 10.495-20.99 16.492-35.982 16.492s-26.987-5.997-37.482-17.991c-8.996-11.994-13.493-32.984-13.493-62.969s4.498-50.975 14.993-64.469c8.996-10.495 20.99-16.492 35.982-16.492zM365.821 847.086c-2.999 0-7.496 1.499-10.495 2.999-2.999 2.999-4.498 5.997-5.997 11.994-1.499 7.496-2.999 20.99-2.999 38.981s1.499 31.485 2.999 37.482c1.499 7.496 4.498 11.994 7.496 13.493s5.997 2.999 8.996 2.999c2.999 0 7.496-1.499 10.495-2.999 2.999-2.999 4.498-5.997 5.997-11.994 1.499-7.496 2.999-20.99 2.999-38.981s-1.499-31.485-2.999-37.482c-1.499-7.496-4.498-11.994-7.496-13.493s-5.997-2.999-8.996-2.999z"></path> <path  class="path5 fill-color5" d="M488.761 821.599c14.993 0 26.987 5.997 35.982 16.492 10.495 13.493 14.993 34.483 14.993 64.469s-4.498 50.975-14.993 64.469c-8.996 10.495-20.99 16.492-35.982 16.492s-26.987-5.997-37.482-17.991c-8.996-11.994-13.493-32.984-13.493-62.969s4.498-50.975 14.993-64.469c7.496-10.495 19.49-16.492 35.982-16.492zM488.761 847.086c-2.999 0-7.496 1.499-10.495 2.999-2.999 2.999-4.498 5.997-5.997 11.994-1.499 7.496-2.999 20.99-2.999 38.981s1.499 31.485 2.999 37.482c1.499 7.496 4.498 11.994 7.496 13.493s5.997 2.999 8.996 2.999 7.496-1.499 10.495-2.999c2.999-2.999 4.498-5.997 5.997-11.994 1.499-7.496 2.999-20.99 2.999-38.981s-1.499-31.485-2.999-37.482c-1.499-7.496-4.498-11.994-7.496-13.493s-5.997-2.999-8.996-2.999z"></path> <path  class="path6 fill-color5" d="M707.654 980.521h-34.483l-13.493-35.982h-62.969l-13.493 35.982h-32.984l61.47-157.423h32.984l62.969 157.423zM649.183 917.552l-20.99-58.471-20.99 58.471h41.98z"></path> <path class="path7 fill-color5" d="M722.647 866.577h26.987v14.993c10.495-11.994 22.489-17.991 35.982-17.991 7.496 0 13.493 1.499 19.49 4.498s10.495 7.496 13.493 13.493c4.498-5.997 10.495-10.495 16.492-13.493s11.994-4.498 17.991-4.498c8.996 0 14.993 1.499 20.99 4.498s10.495 8.996 13.493 14.993c1.499 4.498 2.999 11.994 2.999 23.988v73.464h-29.985v-65.968c0-11.994-1.499-17.991-2.999-22.489-2.999-4.498-7.496-5.997-13.493-5.997-4.498 0-7.496 1.499-11.994 4.498-2.999 2.999-5.997 5.997-7.496 11.994-1.499 4.498-2.999 13.493-2.999 23.988v55.473h-29.985v-62.969c0-10.495 0-17.991-1.499-20.99s-2.999-5.997-4.498-7.496-5.997-2.999-8.996-2.999c-4.498 0-8.996 1.499-11.994 4.498s-5.997 5.997-7.496 10.495-2.999 11.994-2.999 23.988v55.473h-29.985v-115.444z"></path> <path  class="path8 fill-color5" d="M919.051 866.577h28.486v16.492c2.999-5.997 8.996-10.495 14.993-13.493s13.493-5.997 20.99-5.997c13.493 0 23.988 4.498 32.984 14.993s13.493 25.488 13.493 43.479c0 19.49-4.498 34.483-13.493 44.978s-20.99 16.492-34.483 16.492c-5.997 0-11.994-1.499-16.492-4.498s-10.495-7.496-16.492-13.493v56.972h-29.985v-155.924zM949.037 922.050c0 13.493 2.999 22.489 7.496 28.486s11.994 8.996 17.991 8.996c7.496 0 13.493-2.999 17.991-8.996s7.496-14.993 7.496-26.987c0-11.994-2.999-20.99-7.496-26.987s-10.495-8.996-17.991-8.996c-7.496 0-13.493 2.999-17.991 8.996s-7.496 13.493-7.496 25.488z"></path> </symbol> <symbol id="icon-modem" viewBox="0 0 930 1024"> <path  class="path1 fill-color5" d="M866.893 959.474v2.805c0 35.068-28.055 63.123-63.123 63.123h-705.578c-35.068 0-63.123-28.055-63.123-63.123v-2.805h831.825z"></path> <path  class="path2 fill-color5" d="M704.175 373.129c5.611-26.652 40.679-25.249 43.485 0l26.652 326.838h-96.789l26.652-326.838zM338.060 302.992c-15.43 56.11-15.43 110.816-9.819 164.121 1.403 14.027 8.416 14.027 18.236 11.222 8.416-1.403 16.833-4.208 23.847-5.611 9.819-2.805 15.43-2.805 12.625-19.638-5.611-43.485-2.805-89.775 9.819-134.663 25.249-93.984 85.567-168.329 164.121-213.216s172.537-60.318 266.521-35.068c22.444 5.611 44.888 14.027 67.332 25.249 14.027 7.014 15.43 2.805 21.041-4.208l15.43-23.847c5.611-9.819 7.014-14.027-9.819-22.444-25.249-12.625-50.499-22.444-78.553-29.458-109.414-30.86-220.23-12.625-310.005 39.277-91.178 51.901-161.315 138.871-190.773 248.285v0zM572.318 366.115c-2.805 11.222-4.208 22.444-5.611 35.068-1.403 23.847 9.819 19.638 22.444 18.236l19.638-5.611c16.833-4.208 14.027-11.222 19.638-32.263 8.416-29.458 26.652-51.901 50.499-65.929s53.304-18.236 82.762-11.222c16.833 4.208 19.638 5.611 25.249-5.611l12.625-21.041c5.611-11.222 11.222-15.43-8.416-22.444-4.208-1.403-9.819-2.805-15.43-4.208-44.888-11.222-89.775-4.208-126.247 16.833-36.471 18.236-65.929 53.304-77.151 98.192v0zM457.293 335.255c-8.416 32.263-11.222 63.123-8.416 93.984 1.403 21.041 7.014 21.041 19.638 18.236 5.611-1.403 11.222-2.805 16.833-4.208 19.638-4.208 19.638-7.014 19.638-30.86 0-21.041 1.403-42.082 8.416-64.526 16.833-60.318 56.11-109.414 106.608-138.871s112.219-39.277 172.537-22.444c12.625 2.805 25.249 8.416 36.471 12.625 12.625 5.611 14.027 2.805 19.638-5.611l15.43-25.249c5.611-8.416 5.611-14.027-11.222-21.041-14.027-7.014-29.458-12.625-46.29-16.833-75.748-21.041-152.899-8.416-217.425 28.055-61.721 39.277-112.219 99.595-131.858 176.745z"></path> <path  class="path3 fill-color5" d="M26.652 807.978h838.838c15.43 0 26.652 12.625 26.652 26.652v70.137c0 15.43-12.625 26.652-26.652 26.652h-838.838c-15.43 0-26.652-12.625-26.652-26.652v-70.137c0-14.027 12.625-26.652 26.652-26.652v0zM98.192 722.411h705.578c33.666 0 61.721 26.652 63.123 60.318h-831.825c1.403-32.263 29.458-60.318 63.123-60.318v0zM82.762 838.838c-16.833 0-30.86 14.027-30.86 32.263 0 16.833 14.027 30.86 30.86 30.86s32.263-14.027 32.263-30.86c0-18.236-14.027-32.263-32.263-32.263v0zM809.381 838.838c-16.833 0-30.86 14.027-30.86 32.263 0 16.833 14.027 30.86 30.86 30.86s30.86-14.027 30.86-30.86c1.403-18.236-14.027-32.263-30.86-32.263v0zM276.34 838.838c-16.833 0-32.263 14.027-32.263 32.263 0 16.833 14.027 30.86 32.263 30.86 16.833 0 30.86-14.027 30.86-30.86 0-18.236-14.027-32.263-30.86-32.263v0zM179.551 838.838c-16.833 0-32.263 14.027-32.263 32.263 0 16.833 14.027 30.86 32.263 30.86 16.833 0 30.86-14.027 30.86-30.86 1.403-18.236-12.625-32.263-30.86-32.263z"></path> </symbol> <symbol id="icon-cart" viewBox="0 0 1115 1024"> <path  class="path1 fill-color2" d="M882.103 863.086c43.886 0 80.457 36.571 80.457 80.457s-36.571 80.457-80.457 80.457c-43.886 0-80.457-36.571-80.457-80.457-1.463-43.886 35.109-80.457 80.457-80.457zM356.937 943.543c0 43.886 36.571 80.457 80.457 80.457s80.457-36.571 80.457-80.457c0-43.886-36.571-80.457-80.457-80.457s-80.457 36.571-80.457 80.457zM2.926 23.406c7.314-16.091 26.331-26.331 43.886-23.406 5.851 1.463 10.24 2.926 14.629 4.389 14.629 7.314 124.343 49.737 138.971 55.589 5.851 2.926 10.24 4.389 14.629 8.777 8.777 7.314 11.703 17.554 13.166 27.794 4.389 21.943 20.48 112.64 20.48 112.64 13.166 0 819.2 0 825.051 0 23.406 0 43.886 19.017 40.96 43.886-1.463 29.257-24.869 294.034-24.869 296.96-1.463 17.554-14.629 32.183-30.72 36.571-14.629 2.926-722.651 109.714-722.651 109.714l7.314 38.034c0 0 689.006 0 690.469 0 14.629 0 27.794 7.314 35.109 19.017 16.091 26.331-4.389 61.44-35.109 61.44-5.851 0-706.56 0-724.114 0-20.48 0-38.034-13.166-40.96-33.646-1.463-5.851-117.029-652.434-117.029-652.434s-99.474-39.497-118.491-46.811c-2.926-1.463-5.851-2.926-8.777-4.389-14.629-5.851-24.869-20.48-24.869-35.109 0-7.314 1.463-13.166 2.926-19.017zM523.703 291.109l16.091 128.731 256-20.48-5.851-106.789-266.24-1.463zM832.366 291.109l4.389 103.863 187.246-14.629c2.926-29.257 7.314-89.234 7.314-89.234h-198.949zM1012.297 512l7.314-92.16-181.394 14.629 4.389 102.4 169.691-24.869zM804.571 544.183l-5.851-105.326-253.074 20.48 16.091 121.417 242.834-36.571zM321.829 615.863l200.411-29.257-16.091-124.343-207.726 17.554 23.406 136.046zM292.571 440.32l207.726-17.554-17.554-131.657c-17.554 0-36.571 0-54.126 0-38.034 0-76.069 0-112.64 0-17.554 0-35.109 0-51.2 0 0 0 0 0 0 0 2.926 26.331 27.794 149.211 27.794 149.211z"></path> </symbol> <symbol id="icon-phone" viewBox="0 0 1024 1024"> <path  class="path1 fill-color3" d="M512 0c-282.331 0-512 229.669-512 512s229.669 512 512 512c282.331 0 512-229.669 512-512s-229.669-512-512-512zM648.046 823.589c-43.886-2.926-327.68-71.68-447.634-409.6-24.869-70.217 5.851-185.783 86.309-210.651 81.92-26.331 124.343 87.771 136.046 160.914l-71.68 71.68c0 0-1.463 45.349 96.549 143.36s143.36 96.549 143.36 96.549l83.383-83.383c52.663 11.703 157.989 77.531 157.989 77.531-13.166 99.474-80.457 163.84-184.32 153.6z"></path> </symbol> <symbol id="icon-system" viewBox="0 0 1024 1024"> <path class="path1 fill-color4" d="M383.269 320.366l320.366 191.634-320.366 191.634v-128.731l-383.269 1.463v-127.269h383.269v-128.731zM0 0v256h128.731v-127.269h768v768h-768v-128.731h-128.731v256h1024v-1024h-1024z"></path> </symbol> </defs> </svg>
